PathFileType	4	(X/Y/Z)	traj.trc
DataRate	CameraRate	NumFrames	NumMarkers	Units	OrigDataRate	OrigDataStartFrame	OrigNumFrames
30.00	30.00	100	1	mm	30.00	1	100
Frame#	Time	wrist		
		X1	Y1	Z1

0	0.0	100.0	800.0	200.0
1	0.10101010101010101	100.0	800.0	200.0
2	0.20202020202020202	100.00149969392442	799.9955009182268	200.0
3	0.30303030303030304	100.00887636416479	799.9733709075057	200.0
4	0.40404040404040403	100.02770529933807	799.9168841019858	200.0
5	0.5050505050505051	100.0632057590995	799.8103827227015	200.0
6	0.6060606060606061	100.12024846948927	799.6392545915322	200.0
7	0.7070707070707071	100.20336311827904	799.389910645163	200.0
8	0.8080808080808081	100.3167458503185	799.0497624490446	200.0
9	0.9090909090909091	100.46426676288193	798.6071997113543	200.0
10	1.0101010101010102	100.64947740101482	798.0515677969556	200.0
11	1.1111111111111112	100.87561825288032	797.373145241359	200.0
12	1.2121212121212122	101.1456262451059	796.5631212646824	200.0
13	1.3131313131313131	101.46214223812986	795.6135732856105	200.0
14	1.4141414141414141	101.82751852154789	794.5174444353564	200.0
15	1.5151515151515151	102.24382630945969	793.268521071621	200.0
16	1.6161616161616161	102.71286323581545	791.8614102925537	200.0
17	1.7171717171717171	103.23616084976243	790.2915174507128	200.0
18	1.8181818181818181	103.8149921109916	788.5550236670252	200.0
19	1.9191919191919191	104.45037888508408	786.6488633447478	200.0
20	2.0202020202020203	105.14309943885776	784.5707016834268	200.0
21	2.121212121212121	105.89369593571392	782.3189121928583	200.0
22	2.2222222222222223	106.70248193098367	779.8925542070491	200.0
23	2.323232323232323	107.5695498672746	777.2913503981763	200.0
24	2.4242424242424243	108.4947785698173	774.5156642905482	200.0
25	2.525252525252525	109.47784074181195	771.5664777745642	200.0
26	2.6262626262626263	110.51821045977488	768.4453686206755	200.0
27	2.727272727272727	111.61517066888504	765.1544879933449	200.0
28	2.8282828282828283	112.76782067833075	761.6965379650078	200.0
29	2.929292929292929	113.97508365665604	758.074749030032	200.0
30	3.0303030303030303	115.2357141271074	754.2928576186778	200.0
31	3.131313131313131	116.54830546298022	750.3550836110594	200.0
32	3.2323232323232323	117.91129738296539	746.2661078511038	200.0
33	3.3333333333333335	119.32298344649588	742.0310496605124	200.0
34	3.4343434343434343	120.78151854909329	737.6554443527201	200.0
35	3.5353535353535355	122.28492641771435	733.1452207468569	200.0
36	3.6363636363636362	123.8311071060976	728.5066786817073	200.0
37	3.7373737373737375	125.41784449010984	723.7464665296704	200.0
38	3.8383838383838382	127.0428137630928	718.8715587107217	200.0
39	3.9393939393939394	128.70358893120948	713.8892332063715	200.0
40	4.040404040404041	130.3976503087911	708.8070490736267	200.0
41	4.141414141414141	132.12239201368325	703.6328239589502	200.0
42	4.242424242424242	133.87512946259272	698.3746116122219	200.0
43	4.343434343434343	135.6531068664339	693.0406794006983	200.0
44	4.444444444444445	137.45350472567546	687.6394858229736	200.0
45	4.545454545454545	139.2734473256869	682.1796580229393	200.0
46	4.646464646464646	141.11001023208496	676.6699693037451	200.0
47	4.747474747474747	142.96022778608045	671.1193166417587	200.0
48	4.848484848484849	144.8211005998245	665.5366982005266	200.0
49	4.94949494949495	146.6896030517553	659.931190844734	200.0
50	5.05050505050505	148.56269078194484	654.3119276541655	200.0
51	5.151515151515151	150.43730818744498	648.6880754376649	200.0
52	5.252525252525253	152.3103959176345	643.0688122470964	200.0
53	5.353535353535354	154.1788983695654	637.4633048913039	200.0
54	5.454545454545454	156.03977118330943	631.8806864500718	200.0
55	5.555555555555555	157.88998873730486	626.3300337880854	200.0
56	5.656565656565657	159.72655164370298	620.8203450688911	200.0
57	5.757575757575758	161.54649424371436	615.3605172688568	200.0
58	5.858585858585858	163.34689210295593	609.9593236911321	200.0
59	5.959595959595959	165.12486950679713	604.6253914796085	200.0
60	6.0606060606060606	166.87760695570657	599.3671791328803	200.0
61	6.161616161616162	168.60234866059875	594.1929540182039	200.0
62	6.262626262626262	170.29641003818037	589.1107698854589	200.0
63	6.363636363636363	171.95718520629708	584.1284443811088	200.0
64	6.4646464646464645	173.58215447928	579.2535365621601	200.0
65	6.565656565656566	175.16889186329226	574.4933244101233	200.0
66	6.666666666666667	176.71507255167552	569.8547823449735	200.0
67	6.767676767676767	178.2184804202966	565.3445587391104	200.0
68	6.8686868686868685	179.67701552289398	560.9689534313181	200.0
69	6.96969696969697	181.0887015864245	556.7338952407267	200.0
70	7.070707070707071	182.45169350640967	552.6449194807711	200.0
71	7.171717171717171	183.76428484228248	548.7071454731527	200.0
72	7.2727272727272725	185.0249153127338	544.9252540617986	200.0
73	7.373737373737374	186.2321782910591	541.3034651268227	200.0
74	7.474747474747475	187.3848283005048	537.8455150984855	200.0
75	7.575757575757575	188.481788509615	534.5546344711552	200.0
76	7.6767676767676765	189.5221582275779	531.4335253172663	200.0
77	7.777777777777778	190.50522039957258	528.4843388012823	200.0
78	7.878787878787879	191.43044910211526	525.7086526936542	200.0
79	7.979797979797979	192.2975170384062	523.1074488847814	200.0
80	8.080808080808081	193.10630303367597	520.6810908989722	200.0
81	8.181818181818182	193.85689953053208	518.4293014084038	200.0
82	8.282828282828282	194.5496200843058	516.3511397470827	200.0
83	8.383838383838384	195.18500685839825	514.4449794248053	200.0
84	8.484848484848484	195.76383811962742	512.7084856411178	200.0
85	8.585858585858587	196.2871357335744	511.13859279927686	200.0
86	8.686868686868687	196.75617265993014	509.7314820202097	200.0
87	8.787878787878787	197.17248044784193	508.4825586564743	200.0
88	8.88888888888889	197.53785673125998	507.38642980622006	200.0
89	8.98989898989899	197.85437272428393	506.43688182714817	200.0
90	9.09090909090909	198.1243807165095	505.6268578504715	200.0
91	9.191919191919192	198.35052156837503	504.94843529487497	200.0
92	9.292929292929292	198.53573220650787	504.3928033804763	200.0
93	9.393939393939394	198.6832531190713	503.950240642786	200.0
94	9.494949494949495	198.79663585111078	503.61009244666775	200.0
95	9.595959595959595	198.87975049990052	503.3607485002984	200.0
96	9.696969696969697	198.9367932102903	503.18962036912905	200.0
97	9.797979797979798	198.97229367005176	503.0831189898448	200.0
98	9.8989898989899	198.99112260522506	503.02663218432497	200.0
99	10.0	198.99849927546543	503.00450217360384	200.0
